<mxfile host="app.diagrams.net" modified="2022-11-11T03:44:58.509Z" agent="5.0 (Windows NT 10.0; Win64; x64) AppleWebKit/537.36 (KHTML, like Gecko) Chrome/107.0.0.0 Safari/537.36" etag="FmZ6s8OHfAXsly5XT7_5" version="20.5.3" type="github">
  <diagram id="C5RBs43oDa-KdzZeNtuy" name="Page-1">
    <mxGraphModel dx="680" dy="328" grid="1" gridSize="10" guides="1" tooltips="1" connect="1" arrows="1" fold="1" page="1" pageScale="1" pageWidth="1654" pageHeight="2336" math="0" shadow="0">
      <root>
        <mxCell id="WIyWlLk6GJQsqaUBKTNV-0" />
        <mxCell id="WIyWlLk6GJQsqaUBKTNV-1" parent="WIyWlLk6GJQsqaUBKTNV-0" />
        <mxCell id="F9qe83tli3RoLFb3Kxro-66" value="false" style="edgeStyle=orthogonalEdgeStyle;rounded=0;orthogonalLoop=1;jettySize=auto;html=1;entryX=0.081;entryY=0.749;entryDx=0;entryDy=0;entryPerimeter=0;" edge="1" parent="WIyWlLk6GJQsqaUBKTNV-1" source="F9qe83tli3RoLFb3Kxro-22" target="F9qe83tli3RoLFb3Kxro-55">
          <mxGeometry x="-0.9261" y="-20" relative="1" as="geometry">
            <mxPoint x="40" y="1310" as="targetPoint" />
            <Array as="points">
              <mxPoint x="40" y="210" />
              <mxPoint x="40" y="1310" />
            </Array>
            <mxPoint as="offset" />
          </mxGeometry>
        </mxCell>
        <mxCell id="F9qe83tli3RoLFb3Kxro-18" value="" style="rounded=0;html=1;jettySize=auto;orthogonalLoop=1;fontSize=11;endArrow=block;endFill=0;endSize=8;strokeWidth=1;shadow=0;labelBackgroundColor=none;edgeStyle=orthogonalEdgeStyle;" edge="1" parent="WIyWlLk6GJQsqaUBKTNV-1" source="F9qe83tli3RoLFb3Kxro-19" target="F9qe83tli3RoLFb3Kxro-22">
          <mxGeometry relative="1" as="geometry" />
        </mxCell>
        <mxCell id="F9qe83tli3RoLFb3Kxro-19" value="x.name,x.amount" style="rounded=1;whiteSpace=wrap;html=1;fontSize=12;glass=0;strokeWidth=1;shadow=0;" vertex="1" parent="WIyWlLk6GJQsqaUBKTNV-1">
          <mxGeometry x="160" y="80" width="120" height="40" as="geometry" />
        </mxCell>
        <mxCell id="F9qe83tli3RoLFb3Kxro-20" value="TRUE" style="rounded=0;html=1;jettySize=auto;orthogonalLoop=1;fontSize=11;endArrow=block;endFill=0;endSize=8;strokeWidth=1;shadow=0;labelBackgroundColor=none;edgeStyle=orthogonalEdgeStyle;" edge="1" parent="WIyWlLk6GJQsqaUBKTNV-1" source="F9qe83tli3RoLFb3Kxro-22" target="F9qe83tli3RoLFb3Kxro-25">
          <mxGeometry x="0.6" y="-30" relative="1" as="geometry">
            <mxPoint as="offset" />
          </mxGeometry>
        </mxCell>
        <mxCell id="F9qe83tli3RoLFb3Kxro-22" value="k!=NULL" style="rhombus;whiteSpace=wrap;html=1;shadow=0;fontFamily=Helvetica;fontSize=12;align=center;strokeWidth=1;spacing=6;spacingTop=-4;" vertex="1" parent="WIyWlLk6GJQsqaUBKTNV-1">
          <mxGeometry x="170" y="170" width="100" height="80" as="geometry" />
        </mxCell>
        <mxCell id="F9qe83tli3RoLFb3Kxro-24" value="TRUE" style="edgeStyle=orthogonalEdgeStyle;rounded=0;orthogonalLoop=1;jettySize=auto;html=1;" edge="1" parent="WIyWlLk6GJQsqaUBKTNV-1" source="F9qe83tli3RoLFb3Kxro-25" target="F9qe83tli3RoLFb3Kxro-27">
          <mxGeometry x="-0.2" y="-30" relative="1" as="geometry">
            <mxPoint as="offset" />
          </mxGeometry>
        </mxCell>
        <mxCell id="F9qe83tli3RoLFb3Kxro-25" value="k.name=x.name&lt;br&gt;k.amout+=x.amount" style="rhombus;whiteSpace=wrap;html=1;shadow=0;fontFamily=Helvetica;fontSize=12;align=center;strokeWidth=1;spacing=6;spacingTop=-4;" vertex="1" parent="WIyWlLk6GJQsqaUBKTNV-1">
          <mxGeometry x="140" y="280" width="160" height="130" as="geometry" />
        </mxCell>
        <mxCell id="F9qe83tli3RoLFb3Kxro-43" style="edgeStyle=orthogonalEdgeStyle;rounded=0;orthogonalLoop=1;jettySize=auto;html=1;entryX=0.5;entryY=0;entryDx=0;entryDy=0;" edge="1" parent="WIyWlLk6GJQsqaUBKTNV-1" source="F9qe83tli3RoLFb3Kxro-27" target="F9qe83tli3RoLFb3Kxro-38">
          <mxGeometry relative="1" as="geometry" />
        </mxCell>
        <mxCell id="F9qe83tli3RoLFb3Kxro-62" value="" style="edgeStyle=orthogonalEdgeStyle;rounded=0;orthogonalLoop=1;jettySize=auto;html=1;" edge="1" parent="WIyWlLk6GJQsqaUBKTNV-1" source="F9qe83tli3RoLFb3Kxro-27" target="F9qe83tli3RoLFb3Kxro-38">
          <mxGeometry relative="1" as="geometry" />
        </mxCell>
        <mxCell id="F9qe83tli3RoLFb3Kxro-27" value="count+=1;&lt;br&gt;stt=1" style="rounded=1;whiteSpace=wrap;html=1;fontSize=12;glass=0;strokeWidth=1;shadow=0;" vertex="1" parent="WIyWlLk6GJQsqaUBKTNV-1">
          <mxGeometry x="160" y="460" width="120" height="40" as="geometry" />
        </mxCell>
        <mxCell id="F9qe83tli3RoLFb3Kxro-29" value="TRUE" style="edgeStyle=orthogonalEdgeStyle;rounded=0;orthogonalLoop=1;jettySize=auto;html=1;entryX=0.5;entryY=0;entryDx=0;entryDy=0;" edge="1" parent="WIyWlLk6GJQsqaUBKTNV-1" source="F9qe83tli3RoLFb3Kxro-30" target="F9qe83tli3RoLFb3Kxro-32">
          <mxGeometry x="-0.4545" y="-30" relative="1" as="geometry">
            <mxPoint as="offset" />
          </mxGeometry>
        </mxCell>
        <mxCell id="F9qe83tli3RoLFb3Kxro-30" value="p.name=k.name&lt;br&gt;p.amount&amp;lt;=k.amount" style="rhombus;whiteSpace=wrap;html=1;" vertex="1" parent="WIyWlLk6GJQsqaUBKTNV-1">
          <mxGeometry x="150" y="690" width="140" height="145" as="geometry" />
        </mxCell>
        <mxCell id="F9qe83tli3RoLFb3Kxro-31" style="edgeStyle=orthogonalEdgeStyle;rounded=0;orthogonalLoop=1;jettySize=auto;html=1;" edge="1" parent="WIyWlLk6GJQsqaUBKTNV-1" source="F9qe83tli3RoLFb3Kxro-32" target="F9qe83tli3RoLFb3Kxro-34">
          <mxGeometry relative="1" as="geometry" />
        </mxCell>
        <mxCell id="F9qe83tli3RoLFb3Kxro-32" value="delpos(notsale,stt)&lt;br&gt;k.amount-=x.amount&lt;br&gt;insertlast(sale,p)" style="rounded=0;whiteSpace=wrap;html=1;" vertex="1" parent="WIyWlLk6GJQsqaUBKTNV-1">
          <mxGeometry x="160" y="890" width="120" height="60" as="geometry" />
        </mxCell>
        <mxCell id="F9qe83tli3RoLFb3Kxro-33" style="edgeStyle=orthogonalEdgeStyle;rounded=0;orthogonalLoop=1;jettySize=auto;html=1;" edge="1" parent="WIyWlLk6GJQsqaUBKTNV-1" source="F9qe83tli3RoLFb3Kxro-34" target="F9qe83tli3RoLFb3Kxro-35">
          <mxGeometry relative="1" as="geometry" />
        </mxCell>
        <mxCell id="F9qe83tli3RoLFb3Kxro-50" style="edgeStyle=orthogonalEdgeStyle;rounded=0;orthogonalLoop=1;jettySize=auto;html=1;entryX=1;entryY=0.5;entryDx=0;entryDy=0;" edge="1" parent="WIyWlLk6GJQsqaUBKTNV-1" source="F9qe83tli3RoLFb3Kxro-34" target="F9qe83tli3RoLFb3Kxro-38">
          <mxGeometry relative="1" as="geometry">
            <mxPoint x="40" y="600" as="targetPoint" />
            <Array as="points">
              <mxPoint x="370" y="1060" />
              <mxPoint x="370" y="595" />
            </Array>
          </mxGeometry>
        </mxCell>
        <mxCell id="F9qe83tli3RoLFb3Kxro-34" value="p=p-&amp;gt;next&lt;br&gt;stt+=1" style="rounded=0;whiteSpace=wrap;html=1;" vertex="1" parent="WIyWlLk6GJQsqaUBKTNV-1">
          <mxGeometry x="160" y="1020" width="120" height="60" as="geometry" />
        </mxCell>
        <mxCell id="F9qe83tli3RoLFb3Kxro-45" style="edgeStyle=orthogonalEdgeStyle;rounded=0;orthogonalLoop=1;jettySize=auto;html=1;entryX=1;entryY=0.5;entryDx=0;entryDy=0;" edge="1" parent="WIyWlLk6GJQsqaUBKTNV-1" source="F9qe83tli3RoLFb3Kxro-35" target="F9qe83tli3RoLFb3Kxro-22">
          <mxGeometry relative="1" as="geometry">
            <mxPoint x="430" y="210" as="targetPoint" />
            <Array as="points">
              <mxPoint x="430" y="1180" />
              <mxPoint x="430" y="210" />
            </Array>
          </mxGeometry>
        </mxCell>
        <mxCell id="F9qe83tli3RoLFb3Kxro-53" style="edgeStyle=orthogonalEdgeStyle;rounded=0;orthogonalLoop=1;jettySize=auto;html=1;" edge="1" parent="WIyWlLk6GJQsqaUBKTNV-1" source="F9qe83tli3RoLFb3Kxro-35">
          <mxGeometry relative="1" as="geometry">
            <mxPoint x="220" y="1250" as="targetPoint" />
          </mxGeometry>
        </mxCell>
        <mxCell id="F9qe83tli3RoLFb3Kxro-35" value="k=k-&amp;gt;next" style="rounded=0;whiteSpace=wrap;html=1;" vertex="1" parent="WIyWlLk6GJQsqaUBKTNV-1">
          <mxGeometry x="160" y="1150" width="120" height="60" as="geometry" />
        </mxCell>
        <mxCell id="F9qe83tli3RoLFb3Kxro-42" value="TRUE" style="edgeStyle=orthogonalEdgeStyle;rounded=0;orthogonalLoop=1;jettySize=auto;html=1;entryX=0.5;entryY=0;entryDx=0;entryDy=0;" edge="1" parent="WIyWlLk6GJQsqaUBKTNV-1" source="F9qe83tli3RoLFb3Kxro-38" target="F9qe83tli3RoLFb3Kxro-30">
          <mxGeometry y="-30" relative="1" as="geometry">
            <mxPoint as="offset" />
          </mxGeometry>
        </mxCell>
        <mxCell id="F9qe83tli3RoLFb3Kxro-64" value="FALSE" style="edgeStyle=orthogonalEdgeStyle;rounded=0;orthogonalLoop=1;jettySize=auto;html=1;entryX=0.004;entryY=0.367;entryDx=0;entryDy=0;entryPerimeter=0;" edge="1" parent="WIyWlLk6GJQsqaUBKTNV-1" source="F9qe83tli3RoLFb3Kxro-38" target="F9qe83tli3RoLFb3Kxro-55">
          <mxGeometry x="-0.9162" y="-15" relative="1" as="geometry">
            <mxPoint x="80" y="1280" as="targetPoint" />
            <Array as="points">
              <mxPoint x="80" y="595" />
              <mxPoint x="80" y="1279" />
            </Array>
            <mxPoint as="offset" />
          </mxGeometry>
        </mxCell>
        <mxCell id="F9qe83tli3RoLFb3Kxro-38" value="p!=NULL" style="rhombus;whiteSpace=wrap;html=1;" vertex="1" parent="WIyWlLk6GJQsqaUBKTNV-1">
          <mxGeometry x="155" y="540" width="130" height="110" as="geometry" />
        </mxCell>
        <mxCell id="F9qe83tli3RoLFb3Kxro-55" value="END" style="ellipse;whiteSpace=wrap;html=1;" vertex="1" parent="WIyWlLk6GJQsqaUBKTNV-1">
          <mxGeometry x="155" y="1250" width="120" height="80" as="geometry" />
        </mxCell>
        <mxCell id="F9qe83tli3RoLFb3Kxro-57" style="edgeStyle=orthogonalEdgeStyle;rounded=0;orthogonalLoop=1;jettySize=auto;html=1;entryX=0.5;entryY=0;entryDx=0;entryDy=0;" edge="1" parent="WIyWlLk6GJQsqaUBKTNV-1" source="F9qe83tli3RoLFb3Kxro-56" target="F9qe83tli3RoLFb3Kxro-19">
          <mxGeometry relative="1" as="geometry" />
        </mxCell>
        <mxCell id="F9qe83tli3RoLFb3Kxro-56" value="START" style="ellipse;whiteSpace=wrap;html=1;" vertex="1" parent="WIyWlLk6GJQsqaUBKTNV-1">
          <mxGeometry x="172.5" y="10" width="95" height="40" as="geometry" />
        </mxCell>
      </root>
    </mxGraphModel>
  </diagram>
</mxfile>
